<mxfile host="app.diagrams.net" modified="2022-11-14T19:49:20.574Z" agent="5.0 (Windows NT 10.0; Win64; x64) AppleWebKit/537.36 (KHTML, like Gecko) Chrome/107.0.0.0 Safari/537.36" etag="OlIj9lAX1jc7PdobAtjy" version="20.5.3" type="github">
  <diagram id="-t3jnJLLlr8ztdedUzw0" name="Page-1">
    <mxGraphModel dx="1223" dy="1092" grid="1" gridSize="10" guides="1" tooltips="1" connect="1" arrows="1" fold="1" page="1" pageScale="1" pageWidth="827" pageHeight="1169" math="0" shadow="0">
      <root>
        <mxCell id="0" />
        <mxCell id="1" parent="0" />
        <mxCell id="9F63-tDcjd5ESaoniQhn-1" value="&lt;font face=&quot;Georgia&quot; style=&quot;font-size: 18px;&quot;&gt;Acte I&lt;br&gt;&lt;br&gt;&lt;br&gt;&lt;/font&gt;" style="rounded=0;whiteSpace=wrap;html=1;verticalAlign=top;align=left;" parent="1" vertex="1">
          <mxGeometry y="210" width="410" height="200" as="geometry" />
        </mxCell>
        <mxCell id="9F63-tDcjd5ESaoniQhn-2" value="&lt;font style=&quot;font-size: 18px;&quot; face=&quot;Georgia&quot;&gt;Acte II&lt;/font&gt;" style="rounded=0;whiteSpace=wrap;html=1;verticalAlign=top;align=right;" parent="1" vertex="1">
          <mxGeometry x="420" y="210" width="407" height="200" as="geometry" />
        </mxCell>
        <mxCell id="fv9yM441IxTw7lYAv-bU-1" value="&lt;font face=&quot;Georgia&quot; style=&quot;font-size: 18px;&quot;&gt;TODO&lt;br&gt;&lt;/font&gt;" style="rounded=0;whiteSpace=wrap;html=1;verticalAlign=top;align=left;" vertex="1" parent="1">
          <mxGeometry width="827" height="200" as="geometry" />
        </mxCell>
      </root>
    </mxGraphModel>
  </diagram>
</mxfile>
